<?xml version="1.0" encoding="UTF-8"?>
<svg width="14px" height="23px" viewBox="0 0 14 23" version="1.1" xmlns="http://www.w3.org/2000/svg" xmlns:xlink="http://www.w3.org/1999/xlink">
    <!-- Generator: Sketch 46.2 (44496) - http://www.bohemiancoding.com/sketch -->
    <title>location-pin</title>
    <desc>Created with Sketch.</desc>
    <defs></defs>
    <g id="Page-1" stroke="none" stroke-width="1" fill="none" fill-rule="evenodd">
        <g id="location-pin" fill-rule="nonzero" fill="#6E6E6E">
            <path d="M7.01586221,0 L6.98403309,0 C3.13297037,0 0,3.11892506 0,6.95254512 C0,9.46547304 1.14919904,12.7819311 3.41566328,16.8099561 C5.09601089,19.796202 6.79991624,22.0833407 6.81698251,22.1060708 C6.8644121,22.169517 6.93916867,22.2068966 7.01837504,22.2068966 C7.02062611,22.2068966 7.02292954,22.2068966 7.02518061,22.2067923 C7.1068998,22.2045506 7.18233693,22.1628961 7.2276725,22.0950707 C7.24447702,22.0697339 8.93623704,19.5255782 10.6051722,16.4137954 C12.8578159,12.2137827 14,9.03047303 14,6.95254512 C13.9998429,3.11887292 10.8668202,0 7.01586221,0 Z M10.2396084,7.12244745 C10.2396084,8.90144318 8.7863051,10.3486628 6.9998953,10.3486628 C5.21353785,10.3486628 3.76023453,8.90139105 3.76023453,7.12244745 C3.76023453,5.34350385 5.21353785,3.89623212 6.9998953,3.89623212 C8.7863051,3.89623212 10.2396084,5.34350385 10.2396084,7.12244745 Z" id="Shape"></path>
        </g>
    </g>
</svg>