<?xml version="1.0" encoding="UTF-8"?>
<svg width="15px" height="15px" viewBox="0 0 15 15" version="1.1" xmlns="http://www.w3.org/2000/svg" xmlns:xlink="http://www.w3.org/1999/xlink">
    <!-- Generator: Sketch 46.2 (44496) - http://www.bohemiancoding.com/sketch -->
    <title>clock-circular-outline</title>
    <desc>Created with Sketch.</desc>
    <defs></defs>
    <g id="Page-1" stroke="none" stroke-width="1" fill="none" fill-rule="evenodd">
        <g id="clock-circular-outline" fill-rule="nonzero" fill="#6E6E6E">
            <path d="M7.5,0 C3.36450185,0 0,3.36450185 0,7.5 C0,11.6354981 3.36450185,15 7.5,15 C11.6354981,15 15,11.6354981 15,7.5 C15,3.36450185 11.6354981,0 7.5,0 Z M7.5,13.4041272 C4.24449362,13.4041272 1.5957184,10.7556608 1.5957184,7.5 C1.5957184,4.24433923 4.24449362,1.59587279 7.5,1.59587279 C10.7555064,1.59587279 13.4042816,4.24433923 13.4042816,7.5 C13.4042816,10.7556608 10.7555064,13.4041272 7.5,13.4041272 Z" id="Shape"></path>
            <path d="M11.2850107,7.08586883 L7.94721993,7.08586883 L7.94721993,3.18120352 C7.94721993,2.85261663 7.67340245,2.5862069 7.33567893,2.5862069 C6.99795541,2.5862069 6.72413793,2.85261663 6.72413793,3.18120352 L6.72413793,7.68086545 C6.72413793,8.00945233 6.99795541,8.27586207 7.33567893,8.27586207 L11.2850107,8.27586207 C11.6227342,8.27586207 11.8965517,8.00945233 11.8965517,7.68086545 C11.8965517,7.35227857 11.6227342,7.08586883 11.2850107,7.08586883 Z" id="Shape"></path>
        </g>
    </g>
</svg>